<?xml version="1.0" standalone="no"?>
<!DOCTYPE svg PUBLIC "-//W3C//DTD SVG 1.1//EN" "http://www.w3.org/Graphics/SVG/1.1/DTD/svg11.dtd">
<svg xmlns="http://www.w3.org/2000/svg" xmlns:xlink="http://www.w3.org/1999/xlink" height="14.978699684143066" version="1.1" viewBox="70.7347 57.804 159.783 14.9787" width="159.7830047607422">
<defs>
<path d="M2.96727 9.6C2.82545 11.3891 2.43273 11.88 1.81091 11.88C1.66909 11.88 1.34182 11.8473 1.11273 11.6509C1.42909 11.6073 1.51636 11.3564 1.51636 11.2036C1.51636 10.8873 1.27636 10.7455 1.06909 10.7455C0.850909 10.7455 0.610909 10.8873 0.610909 11.2145C0.610909 11.7382 1.15636 12.12 1.81091 12.12C2.84727 12.12 3.37091 11.1709 3.61091 10.1891C3.75273 9.62182 4.14545 6.44727 4.23273 5.23636L4.44 2.52C4.59273 0.512727 4.96363 0.24 5.45454 0.24C5.56363 0.24 5.90182 0.261818 6.14182 0.469091C5.82545 0.512727 5.73818 0.763636 5.73818 0.916363C5.73818 1.23273 5.97818 1.37455 6.18545 1.37455C6.40363 1.37455 6.64363 1.23273 6.64363 0.905454C6.64363 0.381818 6.09818 0 5.44363 0C4.40727 0 3.98182 1.05818 3.79636 1.88727C3.66545 2.48727 3.27273 5.56363 3.17454 6.88363L2.96727 9.6Z" id="g0-82"/>
<path d="M3.30545 -3.54545H4.36364C5.18182 -3.54545 5.26909 -3.37091 5.26909 -3.05454C5.26909 -2.97818 5.26909 -2.84727 5.19273 -2.52C5.17091 -2.46545 5.16 -2.42182 5.16 -2.4C5.16 -2.31273 5.22545 -2.26909 5.29091 -2.26909C5.4 -2.26909 5.4 -2.30182 5.45454 -2.49818L6.05454 -4.86545C6.08727 -4.98545 6.08727 -5.00727 6.08727 -5.04C6.08727 -5.06182 6.06545 -5.16 5.95636 -5.16S5.83636 -5.10545 5.79273 -4.93091C5.56363 -4.08 5.31273 -3.88364 4.38545 -3.88364H3.39273L4.09091 -6.65454C4.18909 -7.03636 4.2 -7.08 4.68 -7.08H6.12C7.46182 -7.08 7.71273 -6.72 7.71273 -5.88C7.71273 -5.62909 7.71273 -5.58545 7.68 -5.29091C7.65818 -5.14909 7.65818 -5.12727 7.65818 -5.09454C7.65818 -5.04 7.69091 -4.96363 7.78909 -4.96363C7.90909 -4.96363 7.92 -5.02909 7.94182 -5.23636L8.16 -7.12363C8.19272 -7.41818 8.13818 -7.41818 7.86545 -7.41818H2.52C2.30182 -7.41818 2.19273 -7.41818 2.19273 -7.2C2.19273 -7.08 2.29091 -7.08 2.49818 -7.08C2.90182 -7.08 3.20727 -7.08 3.20727 -6.88363C3.20727 -6.84 3.20727 -6.81818 3.15273 -6.62182L1.71273 -0.850909C1.60364 -0.425454 1.58182 -0.338182 0.72 -0.338182C0.534545 -0.338182 0.414545 -0.338182 0.414545 -0.130909C0.414545 0 0.545454 0 0.578182 0C0.894545 0 1.70182 -0.0327273 2.01818 -0.0327273C2.37818 -0.0327273 3.28364 0 3.64364 0C3.74182 0 3.87273 0 3.87273 -0.207273C3.87273 -0.294545 3.80727 -0.316364 3.80727 -0.327273C3.77454 -0.338182 3.75273 -0.338182 3.50182 -0.338182C3.26182 -0.338182 3.20727 -0.338182 2.93454 -0.36C2.61818 -0.392727 2.58545 -0.436364 2.58545 -0.578182C2.58545 -0.6 2.58545 -0.665454 2.62909 -0.829091L3.30545 -3.54545Z" id="g3-70"/>
<path d="M4.06909 -4.12364C3.87273 -4.52727 3.55636 -4.82182 3.06545 -4.82182C1.78909 -4.82182 0.436364 -3.21818 0.436364 -1.62545C0.436364 -0.6 1.03636 0.12 1.88727 0.12C2.10545 0.12 2.65091 0.0763636 3.30545 -0.698182C3.39273 -0.24 3.77454 0.12 4.29818 0.12C4.68 0.12 4.93091 -0.130909 5.10545 -0.48C5.29091 -0.872727 5.43273 -1.53818 5.43273 -1.56C5.43273 -1.66909 5.33454 -1.66909 5.30182 -1.66909C5.19273 -1.66909 5.18182 -1.62545 5.14909 -1.47273C4.96363 -0.763636 4.76727 -0.12 4.32 -0.12C4.02545 -0.12 3.99273 -0.403636 3.99273 -0.621818C3.99273 -0.861818 4.01454 -0.949091 4.13454 -1.42909C4.25454 -1.88727 4.27636 -1.99636 4.37454 -2.41091L4.76727 -3.93818C4.84364 -4.24364 4.84364 -4.26545 4.84364 -4.30909C4.84364 -4.49454 4.71273 -4.60364 4.52727 -4.60364C4.26545 -4.60364 4.10182 -4.36364 4.06909 -4.12364ZM3.36 -1.29818C3.30545 -1.10182 3.30545 -1.08 3.14182 -0.894545C2.66182 -0.294545 2.21454 -0.12 1.90909 -0.12C1.36364 -0.12 1.21091 -0.72 1.21091 -1.14545C1.21091 -1.69091 1.56 -3.03273 1.81091 -3.53454C2.14909 -4.17818 2.64 -4.58182 3.07636 -4.58182C3.78545 -4.58182 3.93818 -3.68727 3.93818 -3.62182S3.91636 -3.49091 3.90545 -3.43636L3.36 -1.29818Z" id="g3-97"/>
<path d="M2.60727 -7.45091C2.60727 -7.46182 2.60727 -7.57091 2.46545 -7.57091C2.21454 -7.57091 1.41818 -7.48363 1.13455 -7.46182C1.04727 -7.45091 0.927272 -7.44 0.927272 -7.24363C0.927272 -7.11273 1.02545 -7.11273 1.18909 -7.11273C1.71273 -7.11273 1.73454 -7.03636 1.73454 -6.92727C1.73454 -6.85091 1.63636 -6.48 1.58182 -6.25091L0.687273 -2.69454C0.556363 -2.14909 0.512727 -1.97454 0.512727 -1.59273C0.512727 -0.556363 1.09091 0.12 1.89818 0.12C3.18545 0.12 4.52727 -1.50545 4.52727 -3.07636C4.52727 -4.06909 3.94909 -4.82182 3.07636 -4.82182C2.57454 -4.82182 2.12727 -4.50545 1.8 -4.16727L2.60727 -7.45091ZM1.58182 -3.32727C1.64727 -3.56727 1.64727 -3.58909 1.74545 -3.70909C2.28 -4.41818 2.77091 -4.58182 3.05454 -4.58182C3.44727 -4.58182 3.74182 -4.25454 3.74182 -3.55636C3.74182 -2.91273 3.38182 -1.65818 3.18545 -1.24364C2.82545 -0.512727 2.32364 -0.12 1.89818 -0.12C1.52727 -0.12 1.16727 -0.414545 1.16727 -1.22182C1.16727 -1.42909 1.16727 -1.63636 1.34182 -2.32364L1.58182 -3.32727Z" id="g3-98"/>
<path d="M5.62909 -7.45091C5.62909 -7.46182 5.62909 -7.57091 5.48727 -7.57091C5.32363 -7.57091 4.28727 -7.47273 4.10182 -7.45091C4.01454 -7.44 3.94909 -7.38545 3.94909 -7.24363C3.94909 -7.11273 4.04727 -7.11273 4.21091 -7.11273C4.73454 -7.11273 4.75636 -7.03636 4.75636 -6.92727L4.72364 -6.70909L4.06909 -4.12364C3.87273 -4.52727 3.55636 -4.82182 3.06545 -4.82182C1.78909 -4.82182 0.436364 -3.21818 0.436364 -1.62545C0.436364 -0.6 1.03636 0.12 1.88727 0.12C2.10545 0.12 2.65091 0.0763636 3.30545 -0.698182C3.39273 -0.24 3.77454 0.12 4.29818 0.12C4.68 0.12 4.93091 -0.130909 5.10545 -0.48C5.29091 -0.872727 5.43273 -1.53818 5.43273 -1.56C5.43273 -1.66909 5.33454 -1.66909 5.30182 -1.66909C5.19273 -1.66909 5.18182 -1.62545 5.14909 -1.47273C4.96363 -0.763636 4.76727 -0.12 4.32 -0.12C4.02545 -0.12 3.99273 -0.403636 3.99273 -0.621818C3.99273 -0.883636 4.01454 -0.96 4.05818 -1.14545L5.62909 -7.45091ZM3.36 -1.29818C3.30545 -1.10182 3.30545 -1.08 3.14182 -0.894545C2.66182 -0.294545 2.21454 -0.12 1.90909 -0.12C1.36364 -0.12 1.21091 -0.72 1.21091 -1.14545C1.21091 -1.69091 1.56 -3.03273 1.81091 -3.53454C2.14909 -4.17818 2.64 -4.58182 3.07636 -4.58182C3.78545 -4.58182 3.93818 -3.68727 3.93818 -3.62182S3.91636 -3.49091 3.90545 -3.43636L3.36 -1.29818Z" id="g3-100"/>
<path d="M4.00364 -4.36364H4.94182C5.16 -4.36364 5.26909 -4.36364 5.26909 -4.58182C5.26909 -4.70182 5.16 -4.70182 4.97454 -4.70182H4.06909L4.29818 -5.94545C4.34182 -6.17454 4.49454 -6.94909 4.56 -7.08C4.65818 -7.28727 4.84364 -7.45091 5.07273 -7.45091C5.11636 -7.45091 5.4 -7.45091 5.60727 -7.25454C5.12727 -7.21091 5.01818 -6.82909 5.01818 -6.66545C5.01818 -6.41454 5.21454 -6.28363 5.42182 -6.28363C5.70545 -6.28363 6.02182 -6.52363 6.02182 -6.93818C6.02182 -7.44 5.52 -7.69091 5.07273 -7.69091C4.70182 -7.69091 4.01454 -7.49454 3.68727 -6.41454C3.62182 -6.18545 3.58909 -6.07636 3.32727 -4.70182H2.57454C2.36727 -4.70182 2.24727 -4.70182 2.24727 -4.49454C2.24727 -4.36364 2.34545 -4.36364 2.55273 -4.36364H3.27273L2.45454 -0.0545454C2.25818 1.00364 2.07273 1.99636 1.50545 1.99636C1.46182 1.99636 1.18909 1.99636 0.981818 1.8C1.48364 1.76727 1.58182 1.37455 1.58182 1.21091C1.58182 0.96 1.38545 0.829091 1.17818 0.829091C0.894545 0.829091 0.578182 1.06909 0.578182 1.48364C0.578182 1.97454 1.05818 2.23636 1.50545 2.23636C2.10545 2.23636 2.54182 1.59273 2.73818 1.17818C3.08727 0.490909 3.33818 -0.829091 3.34909 -0.905454L4.00364 -4.36364Z" id="g3-102"/>
<path d="M3.64364 -3.29454C3.70909 -3.57818 3.96 -4.58182 4.72364 -4.58182C4.77818 -4.58182 5.04 -4.58182 5.26909 -4.44C4.96363 -4.38545 4.74545 -4.11273 4.74545 -3.85091C4.74545 -3.67636 4.86545 -3.46909 5.16 -3.46909C5.4 -3.46909 5.74909 -3.66545 5.74909 -4.10182C5.74909 -4.66909 5.10545 -4.82182 4.73454 -4.82182C4.10182 -4.82182 3.72 -4.24364 3.58909 -3.99273C3.31636 -4.71273 2.72727 -4.82182 2.41091 -4.82182C1.27636 -4.82182 0.654545 -3.41454 0.654545 -3.14182C0.654545 -3.03273 0.763636 -3.03273 0.785454 -3.03273C0.872727 -3.03273 0.905454 -3.05454 0.927272 -3.15273C1.29818 -4.30909 2.01818 -4.58182 2.38909 -4.58182C2.59636 -4.58182 2.97818 -4.48364 2.97818 -3.85091C2.97818 -3.51273 2.79273 -2.78182 2.38909 -1.25455C2.21454 -0.578182 1.83273 -0.12 1.35273 -0.12C1.28727 -0.12 1.03636 -0.12 0.807273 -0.261818C1.08 -0.316364 1.32 -0.545454 1.32 -0.850909C1.32 -1.14545 1.08 -1.23273 0.916363 -1.23273C0.589091 -1.23273 0.316364 -0.949091 0.316364 -0.6C0.316364 -0.0981818 0.861818 0.12 1.34182 0.12C2.06182 0.12 2.45454 -0.643636 2.48727 -0.709091C2.61818 -0.305454 3.01091 0.12 3.66545 0.12C4.78909 0.12 5.41091 -1.28727 5.41091 -1.56C5.41091 -1.66909 5.31273 -1.66909 5.28 -1.66909C5.18182 -1.66909 5.16 -1.62545 5.13818 -1.54909C4.77818 -0.381818 4.03636 -0.12 3.68727 -0.12C3.26182 -0.12 3.08727 -0.469091 3.08727 -0.84C3.08727 -1.08 3.15273 -1.32 3.27273 -1.8L3.64364 -3.29454Z" id="g3-120"/>
<path d="M7.18909 -2.50909C7.37454 -2.50909 7.57091 -2.50909 7.57091 -2.72727S7.37454 -2.94545 7.18909 -2.94545H1.28727C1.10182 -2.94545 0.905454 -2.94545 0.905454 -2.72727S1.10182 -2.50909 1.28727 -2.50909H7.18909Z" id="g1-0"/>
<path d="M3.61091 2.61818C3.61091 2.58545 3.61091 2.56364 3.42545 2.37818C2.06182 1.00364 1.71273 -1.05818 1.71273 -2.72727C1.71273 -4.62545 2.12727 -6.52363 3.46909 -7.88727C3.61091 -8.01818 3.61091 -8.04 3.61091 -8.07273C3.61091 -8.14909 3.56727 -8.18182 3.50182 -8.18182C3.39273 -8.18182 2.41091 -7.44 1.76727 -6.05454C1.21091 -4.85454 1.08 -3.64364 1.08 -2.72727C1.08 -1.87636 1.2 -0.556363 1.8 0.676363C2.45454 2.01818 3.39273 2.72727 3.50182 2.72727C3.56727 2.72727 3.61091 2.69454 3.61091 2.61818Z" id="g5-40"/>
<path d="M3.15273 -2.72727C3.15273 -3.57818 3.03273 -4.89818 2.43273 -6.13091C1.77818 -7.47273 0.84 -8.18182 0.730909 -8.18182C0.665454 -8.18182 0.621818 -8.13818 0.621818 -8.07273C0.621818 -8.04 0.621818 -8.01818 0.829091 -7.82182C1.89818 -6.74182 2.52 -5.00727 2.52 -2.72727C2.52 -0.861818 2.11636 1.05818 0.763636 2.43273C0.621818 2.56364 0.621818 2.58545 0.621818 2.61818C0.621818 2.68364 0.665454 2.72727 0.730909 2.72727C0.84 2.72727 1.82182 1.98545 2.46545 0.6C3.02182 -0.6 3.15273 -1.81091 3.15273 -2.72727Z" id="g5-41"/>
<path d="M7.49454 -3.56727C7.65818 -3.56727 7.86545 -3.56727 7.86545 -3.78545S7.65818 -4.00364 7.50545 -4.00364H0.970909C0.818182 -4.00364 0.610909 -4.00364 0.610909 -3.78545S0.818182 -3.56727 0.981818 -3.56727H7.49454ZM7.50545 -1.45091C7.65818 -1.45091 7.86545 -1.45091 7.86545 -1.66909S7.65818 -1.88727 7.49454 -1.88727H0.981818C0.818182 -1.88727 0.610909 -1.88727 0.610909 -1.66909S0.818182 -1.45091 0.970909 -1.45091H7.50545Z" id="g5-61"/>
<path d="M3.12428 -3.03661C3.05255 -3.1721 2.82142 -3.51482 2.33524 -3.51482C1.3868 -3.51482 0.342715 -2.40697 0.342715 -1.2274C0.342715 -0.398506 0.876712 0.0797011 1.49041 0.0797011C2.0005 0.0797011 2.43885 -0.326775 2.58232 -0.486177C2.72578 0.0637609 3.26775 0.0797011 3.36339 0.0797011C3.73001 0.0797011 3.91333 -0.223163 3.97709 -0.358655C4.13649 -0.645579 4.24807 -1.10785 4.24807 -1.13973C4.24807 -1.18755 4.21619 -1.24334 4.12055 -1.24334S4.00897 -1.19552 3.96115 -0.996264C3.84956 -0.557908 3.69813 -0.143462 3.3873 -0.143462C3.20399 -0.143462 3.13225 -0.294894 3.13225 -0.518057C3.13225 -0.653549 3.20399 -0.924533 3.25181 -1.12379S3.41918 -1.80125 3.45106 -1.94471L3.61046 -2.55044C3.65031 -2.74172 3.73798 -3.07646 3.73798 -3.11631C3.73798 -3.29963 3.58655 -3.36339 3.48294 -3.36339C3.36339 -3.36339 3.16413 -3.28369 3.12428 -3.03661ZM2.58232 -0.860772C2.18381 -0.310834 1.76936 -0.143462 1.51432 -0.143462C1.1477 -0.143462 0.964384 -0.478207 0.964384 -0.892653C0.964384 -1.26725 1.17958 -2.12005 1.35492 -2.47073C1.58605 -2.95691 1.97659 -3.29166 2.34321 -3.29166C2.86127 -3.29166 3.0127 -2.70984 3.0127 -2.6142C3.0127 -2.58232 2.81345 -1.80125 2.76563 -1.59402C2.66202 -1.21943 2.66202 -1.20349 2.58232 -0.860772Z" id="g2-97"/>
<path d="M1.94471 -5.29215C1.95268 -5.30809 1.97659 -5.41171 1.97659 -5.41968C1.97659 -5.45953 1.94471 -5.53126 1.84907 -5.53126C1.81719 -5.53126 1.57011 -5.50735 1.3868 -5.49141L0.940473 -5.45953C0.765131 -5.44359 0.68543 -5.43562 0.68543 -5.29215C0.68543 -5.18057 0.797011 -5.18057 0.892653 -5.18057C1.27522 -5.18057 1.27522 -5.13275 1.27522 -5.06102C1.27522 -5.0132 1.19552 -4.6944 1.1477 -4.51108L0.454296 -1.73748C0.390535 -1.4665 0.390535 -1.34695 0.390535 -1.21146C0.390535 -0.390535 0.892653 0.0797011 1.50635 0.0797011C2.48667 0.0797011 3.50685 -1.05205 3.50685 -2.20772C3.50685 -2.99676 2.99676 -3.51482 2.35915 -3.51482C1.91283 -3.51482 1.57011 -3.2279 1.39477 -3.07646L1.94471 -5.29215ZM1.50635 -0.143462C1.21943 -0.143462 0.932503 -0.366625 0.932503 -0.948443C0.932503 -1.16364 0.964384 -1.36289 1.06002 -1.74545C1.11582 -1.97659 1.17161 -2.19975 1.23537 -2.43088C1.27522 -2.57435 1.27522 -2.59029 1.37086 -2.70984C1.64184 -3.04458 2.0005 -3.29166 2.33524 -3.29166C2.73375 -3.29166 2.88518 -2.90112 2.88518 -2.54247C2.88518 -2.24757 2.70984 -1.39477 2.47073 -0.924533C2.26351 -0.494147 1.88095 -0.143462 1.50635 -0.143462Z" id="g2-98"/>
<path d="M3.99303 -3.18007C3.64234 -3.0924 3.6264 -2.78157 3.6264 -2.74969C3.6264 -2.57435 3.76189 -2.45479 3.93724 -2.45479S4.38356 -2.59029 4.38356 -2.933C4.38356 -3.3873 3.88144 -3.51482 3.58655 -3.51482C3.21196 -3.51482 2.90909 -3.25181 2.72578 -2.94097C2.55044 -3.36339 2.13599 -3.51482 1.80922 -3.51482C0.940473 -3.51482 0.454296 -2.51856 0.454296 -2.29539C0.454296 -2.22366 0.510087 -2.19178 0.573848 -2.19178C0.669489 -2.19178 0.68543 -2.23163 0.70934 -2.32727C0.892653 -2.90909 1.37086 -3.29166 1.78531 -3.29166C2.09614 -3.29166 2.24757 -3.06849 2.24757 -2.78157C2.24757 -2.62217 2.15193 -2.25554 2.08817 -2.0005C2.03238 -1.76936 1.85704 -1.06002 1.81719 -0.908593C1.7056 -0.478207 1.41868 -0.143462 1.06002 -0.143462C1.02814 -0.143462 0.820922 -0.143462 0.653549 -0.255044C1.02017 -0.342715 1.02017 -0.67746 1.02017 -0.68543C1.02017 -0.868742 0.876712 -0.980324 0.70137 -0.980324C0.486177 -0.980324 0.255044 -0.797011 0.255044 -0.494147C0.255044 -0.127522 0.645579 0.0797011 1.05205 0.0797011C1.47447 0.0797011 1.76936 -0.239103 1.91283 -0.494147C2.08817 -0.103611 2.45479 0.0797011 2.83736 0.0797011C3.7061 0.0797011 4.18431 -0.916563 4.18431 -1.13973C4.18431 -1.21943 4.12055 -1.24334 4.06476 -1.24334C3.96912 -1.24334 3.95318 -1.18755 3.92927 -1.10785C3.76986 -0.573848 3.31557 -0.143462 2.8533 -0.143462C2.59029 -0.143462 2.399 -0.318804 2.399 -0.653549C2.399 -0.812951 2.44682 -0.996264 2.55841 -1.44259C2.6142 -1.68169 2.78954 -2.38306 2.82939 -2.5345C2.94097 -2.94894 3.21993 -3.29166 3.57858 -3.29166C3.61843 -3.29166 3.82565 -3.29166 3.99303 -3.18007Z" id="g2-120"/>
<path d="M5.82615 -2.65405C5.9457 -2.65405 6.10511 -2.65405 6.10511 -2.83736S5.91382 -3.02067 5.79427 -3.02067H0.781071C0.661519 -3.02067 0.470237 -3.02067 0.470237 -2.83736S0.629639 -2.65405 0.749191 -2.65405H5.82615ZM5.79427 -0.964384C5.91382 -0.964384 6.10511 -0.964384 6.10511 -1.1477S5.9457 -1.33101 5.82615 -1.33101H0.749191C0.629639 -1.33101 0.470237 -1.33101 0.470237 -1.1477S0.661519 -0.964384 0.781071 -0.964384H5.79427Z" id="g4-61"/>
</defs>
<g id="page1">
<use x="70.7347" xlink:href="#g0-82" y="60.1633"/>
<use x="78.0075" xlink:href="#g2-120" y="63.3181"/>
<use x="82.7566" xlink:href="#g4-61" y="63.3181"/>
<use x="89.3185" xlink:href="#g2-98" y="63.3181"/>
<use x="75.8863" xlink:href="#g2-120" y="72.7827"/>
<use x="80.6354" xlink:href="#g4-61" y="72.7827"/>
<use x="87.1973" xlink:href="#g2-97" y="72.7827"/>
<use x="95.2997" xlink:href="#g3-102" y="68.9512"/>
<use x="101.795" xlink:href="#g5-40" y="68.9512"/>
<use x="106.022" xlink:href="#g3-120" y="68.9512"/>
<use x="112.233" xlink:href="#g5-41" y="68.9512"/>
<use x="116.46" xlink:href="#g3-100" y="68.9512"/>
<use x="122.117" xlink:href="#g3-120" y="68.9512"/>
<use x="131.358" xlink:href="#g5-61" y="68.9512"/>
<use x="142.842" xlink:href="#g0-82" y="60.1633"/>
<use x="151.933" xlink:href="#g3-70" y="68.9512"/>
<use x="160.437" xlink:href="#g5-40" y="68.9512"/>
<use x="164.663" xlink:href="#g3-98" y="68.9512"/>
<use x="169.328" xlink:href="#g5-41" y="68.9512"/>
<use x="175.978" xlink:href="#g1-0" y="68.9512"/>
<use x="186.856" xlink:href="#g0-82" y="60.1633"/>
<use x="195.947" xlink:href="#g3-70" y="68.9512"/>
<use x="204.451" xlink:href="#g5-40" y="68.9512"/>
<use x="208.677" xlink:href="#g3-97" y="68.9512"/>
<use x="214.422" xlink:href="#g5-41" y="68.9512"/>
<use x="218.649" xlink:href="#g3-100" y="68.9512"/>
<use x="224.306" xlink:href="#g3-120" y="68.9512"/>
</g>
</svg>